<svg xmlns="http://www.w3.org/2000/svg" class="fill-black dark:fill-white" viewBox="0 0 100 125" x="0px" y="0px"><title>Share</title><g data-name="Layer 2"><path d="M39.7,36.05a15.5,15.5,0,0,0,4.27,0,6.25,6.25,0,0,0,.26,2.2c.41,1.13,1.12,1,2.25,1l3.1,0h.11c1.19,0,2.38,0,3.56-.07h.32a.44.44,0,0,0,.43,0,2.1,2.1,0,0,0,1.93-1c1.42-2.16,1.31-6.3-.86-7.94-1.44-1.09-3.43-.84-5.11-.75a55.46,55.46,0,0,0-6.23.69c-1.19.2-.77,1.86.31,1.92v0l.46-.06c-.13.64-.26,1.37-.37,2.12a13.49,13.49,0,0,0-4.16,0c-1.37.07-3.32-.2-4.39.77a.17.17,0,0,0,0,.26C36.57,36.21,38.4,36,39.7,36.05Zm11.17-4.52c1.44-.05,3.13-.14,3.78,1.46a4.71,4.71,0,0,1-.31,3.95,1.09,1.09,0,0,1-.31.24,7.64,7.64,0,0,1-.2-2.12c0-.43-.62-.57-.66-.14A17.06,17.06,0,0,0,53,37.5l-.39.05c0-.21,0-.42,0-.63a13.6,13.6,0,0,1,.08-1.85.34.34,0,0,0-.66-.14,11.15,11.15,0,0,0-.34,2.67h-.37c0-.22-.06-.44-.07-.65a15.58,15.58,0,0,1,.07-2.06.33.33,0,0,0-.64-.13,9.23,9.23,0,0,0-.37,2.83H50c0-.21,0-.42,0-.62,0-.82-.07-1.65-.16-2.47a.27.27,0,0,0-.54,0A11,11,0,0,0,49,36.73c0,.26,0,.54,0,.82h-.61c-.06-.34-.13-.69-.19-1a7.55,7.55,0,0,0-.56-2.28.24.24,0,0,0-.43,0,7.73,7.73,0,0,0,0,2.39c0,.29,0,.6.05.9h-.18a15.79,15.79,0,0,1-.28-2.16,6.27,6.27,0,0,0-.12-2.49.14.14,0,0,0-.22,0c-.7.62-.66,1.84-.67,2.71,0,.27,0,.54,0,.81a4.15,4.15,0,0,1-.09-1.21c0-1.06-.06-2.12-.12-3.18C47.38,31.78,49.12,31.6,50.88,31.54Z"/><path d="M35,69.25,35,69.06a1.28,1.28,0,0,0-.35-.46c-.44-2.18.12-5.25.13-7.34,0-2.94,0-5.87,0-8.81a157.34,157.34,0,0,0-.39-16.79c0-.22-.34-.2-.37,0-1,6.18-1.15,12.49-1.49,18.74-.26,4.79-1.82,11.41-.49,16,.24.83,1.27,1,2,.77l.27-.08A1.46,1.46,0,0,0,35,69.25Zm-2.22-.76.12,0a1.33,1.33,0,0,0-.23.22Z"/><path d="M60.85,69.31a57.46,57.46,0,0,0-25.39,1.05.62.62,0,0,0,.12,1.22c4.14.37,8.35-.11,12.51-.11s8.47.48,12.65,0A1.15,1.15,0,0,0,60.85,69.31Z"/><path d="M57.21,34.31a36.77,36.77,0,0,0,4.21.72c1.23.19,2.4.61,3.56.09a.64.64,0,0,0,.12-1c-1-.8-2.33-.61-3.6-.65a22.69,22.69,0,0,0-4.23.13A.38.38,0,0,0,57.21,34.31Z"/><path d="M66.11,72.15a1.28,1.28,0,0,0,0-.19s0-.09,0-.14c.06-12-.65-24-1-36,0-.32-.55-.32-.56,0-.36,12-1.09,24-1,36a1.14,1.14,0,0,0,.11.65A1.38,1.38,0,0,0,66,72.39s0-.07,0-.1A1.27,1.27,0,0,0,66.11,72.15Z"/><path d="M48.69,50.06a1.43,1.43,0,0,0,2,.08c3-2.56,7.34-5.46,9.18-9,.28-.54-.14-1.41-.85-1.18-3.51,1.15-6.66,4.49-9.32,7.22-1.26-1.15-3.22-2.68-3.6-1.37C45.6,47.44,47.66,48.94,48.69,50.06Z"/><path d="M41.26,54.8c2.44,1.06,5.45.79,8.08.82a38,38,0,0,0,8.3-.36h0a1.05,1.05,0,0,0-.12-2.07c-3-.35-6.27.13-9.32.29-2.35.12-4.81-.06-7,.85C41,54.41,41.07,54.72,41.26,54.8Z"/><path d="M59.34,57.25c-2.71-.52-5.51-.17-8.24,0a53.69,53.69,0,0,0-9.33,1c-.38.09-.53.73-.07.83l.39.09a.2.2,0,0,0,.26-.22c.35,1.57,15.4.32,17.06-.13A.83.83,0,0,0,59.34,57.25Z"/><path d="M50.76,61.12c-1.58.17-3.16.38-4.72.68a.88.88,0,0,0,.1,1.74c1.68.13,3.36.16,5,.14,1.14,0,2.67.24,3.73-.19a.94.94,0,0,0,.65-.86l0-.29a1.32,1.32,0,0,0-1-1.24C53.39,60.65,52,61,50.76,61.12Z"/><path d="M50.2,27.51a1.45,1.45,0,0,0-1-.42,1.27,1.27,0,1,0,1,1.94l-.09.1A1.17,1.17,0,0,0,50.2,27.51Z"/><path d="M49.78,24.15a1,1,0,0,0-1,.82.94.94,0,0,0,.82,1,1,1,0,0,0,1-.82A.94.94,0,0,0,49.78,24.15Z"/><path d="M67.7,32a1.44,1.44,0,0,0-1.27,1.56A1.46,1.46,0,0,0,68,34.79a1.44,1.44,0,0,0,1.27-1.56A1.46,1.46,0,0,0,67.7,32Z"/><path d="M71.53,30.94a1.21,1.21,0,0,0-1.1-1.3,1.24,1.24,0,0,0-1.3,1.1,1.21,1.21,0,0,0,1.1,1.3A1.24,1.24,0,0,0,71.53,30.94Z"/><path d="M67.31,49.67A1.51,1.51,0,0,0,66,51.36a1.56,1.56,0,0,0,1.69,1.31A1.51,1.51,0,0,0,69,51,1.56,1.56,0,0,0,67.31,49.67Z"/><path d="M69.9,51.12A1.9,1.9,0,0,0,72,52.71a1.84,1.84,0,0,0,1.59-2.06,1.9,1.9,0,0,0-2.06-1.59A1.84,1.84,0,0,0,69.9,51.12Z"/><path d="M75.9,52.73a1.56,1.56,0,0,0,1.43-1.67,1.6,1.6,0,0,0-1.67-1.43,1.56,1.56,0,0,0-1.43,1.67A1.6,1.6,0,0,0,75.9,52.73Z"/><path d="M80.16,51.09a1,1,0,0,0-1.07-.91,1,1,0,0,0-.91,1.07,1,1,0,0,0,1.07.91A1,1,0,0,0,80.16,51.09Z"/><path d="M32.07,50.64a.87.87,0,0,0-.58-.37.9.9,0,0,0-.36,0,.44.44,0,0,0-.23.07l-.09.07-.09.07a.9.9,0,0,0-.15.18l-.07.13a.88.88,0,0,0,0,.08.85.85,0,0,0,0,.22v0a.48.48,0,0,0,0,.24.91.91,0,1,0,1.62-.72Z"/><path d="M27.25,49.73l-.66.24c-1.23.74-.26,2.6,1,2.35l.13,0,.07,0a1.2,1.2,0,0,0,.51-.35l.06,0a1.28,1.28,0,0,0,.09-.16l.05-.09a1.33,1.33,0,0,0,.16-.68,1.24,1.24,0,0,0-.19-.56A1.11,1.11,0,0,0,27.25,49.73Z"/><path d="M23.78,50.53c-.74-.21-.78,1.16,0,.93l.15,0a.44.44,0,0,0,0-.84Z"/><path d="M20.65,51.66a.8.8,0,0,0-.93-1.2,1.14,1.14,0,0,0-.56.46.8.8,0,0,0,.93,1.2A1.14,1.14,0,0,0,20.65,51.66Z"/><path d="M32.08,35.38a1.8,1.8,0,1,0-1.71-1.89A1.83,1.83,0,0,0,32.08,35.38Z"/><path d="M29.1,29.68a.82.82,0,0,0-.65.94v.09a.69.69,0,0,0,.63.56h.1a.82.82,0,0,0,.87-.75v-.12a.72.72,0,0,0-.84-.75Z"/><path d="M30.26,71.41a1.24,1.24,0,0,0-.56-.26,2,2,0,0,0-1.06.11,1.5,1.5,0,0,0-.89,1,5.48,5.48,0,0,0-6.69-.83c-.47.29-.28,1.21.34,1.11,1.89-.31,4-.36,5.36,1.23a3.46,3.46,0,0,1-.16,4.83c-1.35,1.23-4.52,1.45-5.13-.67C20.94,76,22.55,74,23.88,73a.13.13,0,0,0-.09-.24c-2.71-.12-4,3.57-3.66,5.79.47,2.82,4.87,3,6.85,1.82a5,5,0,0,0,2.12-6,1.57,1.57,0,0,0,1-.2,1.61,1.61,0,0,0,.46-2.35A1.41,1.41,0,0,0,30.26,71.41Zm.22.3h0Zm-1.18-.57h.06C29,71.22,29,71.22,29.3,71.14Z"/><path d="M49.42,73.24a1,1,0,0,0-1,.84.93.93,0,0,0,.84,1,1,1,0,0,0,1-.84A.93.93,0,0,0,49.42,73.24Z"/><path d="M50.48,75.1l-.15,0a1.14,1.14,0,0,0-.73,1.74,1.15,1.15,0,0,0,1.17.48h0a1.06,1.06,0,0,0,.7-.46l0,0,.1-.12A1.09,1.09,0,0,0,50.48,75.1Z"/><path d="M49.23,79.75l-.09.16a1,1,0,0,0,.29,1.22.87.87,0,0,0,.71.24l.32-.08a1,1,0,0,0,.65-1.06v-.15C51.06,79,49.68,79,49.23,79.75Z"/><path d="M67.49,67.07a1.13,1.13,0,0,0-1,1.26,1.16,1.16,0,0,0,1.26,1,1.13,1.13,0,0,0,1-1.26A1.16,1.16,0,0,0,67.49,67.07Z"/><path d="M70.46,72.22a.88.88,0,0,0,.31-1.72.84.84,0,0,0-.47,0v0a.78.78,0,0,0-.57.42v0a.9.9,0,0,0-.07.14.82.82,0,0,0,0,.21h0a.9.9,0,0,0,0,.14s0,0,0,0a.88.88,0,0,0,0,.17v0s0,.06,0,.08h0A.83.83,0,0,0,70.46,72.22Z"/><path d="M72.41,20.8a.53.53,0,0,0,0,1l.7.09a4.25,4.25,0,0,0-2.37,4.6,5.43,5.43,0,0,0,5.91,4.31c3-.25,5-3.56,4.23-6.47C80,21,75.33,20,72.41,20.8Zm6.12,7.76c-1.6,1.95-5.07.83-6.13-1-1.24-2.18,0-4.34,2-5.42A9.29,9.29,0,0,1,78,23.3C79.72,24.4,79.81,27,78.53,28.56Z"/><path d="M51.37,19.73c2.94-.09,4.81-3.11,4.31-5.88-.65-3.57-4.73-4-7.61-3.08a.59.59,0,0,0-.33.27c-1.56.21-2.72,2.25-2.83,3.86C44.7,18.18,48.61,19.81,51.37,19.73Zm-3.6-8a.46.46,0,0,0,.34.12c1.74,0,4-.36,5.36,1.1s.55,4.08-1.05,5a5.11,5.11,0,0,1-4.49-.34,2.94,2.94,0,0,1-1.79-2.51A3.48,3.48,0,0,1,47.78,11.73Z"/><path d="M22.39,29.82c2.53.51,6.62-1.08,7.18-3.91.69-3.49-4.44-5.37-7.07-5.33a.41.41,0,0,0-.4.5A6.66,6.66,0,0,0,19,23.86C17.71,26.47,19.77,29.29,22.39,29.82Zm-1.51-6.63a5.38,5.38,0,0,1,2.33-1.54A11.31,11.31,0,0,1,27,23.42c2.59,2,.14,4.31-2,5-1.87.6-4.32.07-5-2A3.11,3.11,0,0,1,20.88,23.19Z"/><path d="M13.52,45.28c-.5,0-.67.76-.15.89,1.91.48,4.12.94,4.36,3.29.26,2.59-2.66,6-5.45,5.12A3.92,3.92,0,0,1,9.49,49.9a4.06,4.06,0,0,1,4.34-2.64.13.13,0,0,0,0-.26A4.21,4.21,0,0,0,8.2,50.09c-.63,3,2.08,5.88,5.06,6,2.81.15,5.51-3.17,5.79-5.76C19.43,46.9,16.62,45.29,13.52,45.28Z"/><path d="M47.8,83.37h0c-1.66.78-2.67,3.23-2.73,5-.12,3.31,4.2,3.51,6.49,2.7,2.74-1,4.4-3.86,3-6.61A4.22,4.22,0,0,0,47.8,83.37Zm3.45,6.26c-1,.41-3.22.85-4.13.07a3,3,0,0,1-.59-2.32,6.87,6.87,0,0,1,.58-1.65,4,4,0,0,1,1.06-1.47.6.6,0,0,0,.39-.05,3.28,3.28,0,0,1,4.51,1C54.13,87,53.06,88.87,51.25,89.63Z"/><path d="M76.5,72a4.87,4.87,0,1,0-1.65,9.47c3,.2,6.26-1.92,6-5.21A4.79,4.79,0,0,0,76.5,72ZM79,77.58c-.74,2.11-3.62,2.74-5.52,2A3.44,3.44,0,0,1,72,74.7a4.11,4.11,0,0,1,2.15-1.76.53.53,0,0,0,.3.2C76.72,73.59,80.12,74.45,79,77.58Z"/><path d="M90.76,48.51a5.7,5.7,0,0,0-7.13-2.42.47.47,0,0,0,.11.88c-1.57.69-2.48,3.09-2.36,4.71a5.2,5.2,0,0,0,6.33,4.64A5.25,5.25,0,0,0,90.76,48.51Zm-2.62,6A3.75,3.75,0,0,1,82.9,52.3c-.55-1.67.08-5.52,2.72-5a.15.15,0,0,0,.11-.29,5.11,5.11,0,0,1,3.43,1.92A3.76,3.76,0,0,1,88.14,54.52Z"/></g></svg>
