<svg class="fill-black dark:fill-white" xmlns="http://www.w3.org/2000/svg" viewBox="0 0 100 125" x="0px" y="0px"><title>ID</title><g data-name="Layer 2"><path d="M28.77,85.81c-7.44-2-8.37-8-8.3-14.9.06-5.5.48-11,.72-16.48.45-10.21.88-20.7-1.11-30.78-.08-.42-.76-.47-.79,0-.41,7-.27,14.11-.73,21.15-.47,7.35-1.36,14.66-1.73,22-.44,8.63-.44,22.9,11.92,21.81C30.48,88.46,30.2,86.2,28.77,85.81Z"/><path d="M80.49,70.65c2.45-13.48,3.25-28.92.65-42.3a.68.68,0,0,0-1.34.12c-.58,7.25-.2,14.58-.47,21.85-.25,6.75-.81,13.47-1.14,20.21A1.39,1.39,0,0,0,78,71c-.74,2.62-1.35,13-4.06,14.1-1.26.53-4.53,0-5.88,0-2.58,0-5.15,0-7.73,0-8.69.12-19.12-.61-27.28,2.65a.53.53,0,0,0,0,1c5.63,1.27,11.84.52,17.57.42,6.38-.11,12.75,0,19.12.09,3.23.07,6.81.39,8.84-2.61,2.59-3.82,2.09-10.92,2.08-15.28A1.3,1.3,0,0,0,80.49,70.65Z"/><path d="M20.7,21.17c3.33-6.15,9-6.42,15.44-6.1,5.51.27,11,.65,16.54.87,5.19.2,10.36.21,15.55-.06,3.77-.19,7.82-.2,9.65,3.74.9,1.94.62,4.45.88,6.52a1.14,1.14,0,0,0,2.19.09c1-4.59-.07-10.36-4.77-12.43-3.09-1.36-6.68-.76-9.92-.57q-6.31.35-12.64.24c-7.93-.14-16.35-1.6-24.23-.65-4.45.54-9.61,3-9.5,8.16A.43.43,0,0,0,20.7,21.17Z"/><path d="M30.67,55.47c5.67,1.42,11.72,1.11,17.53,1.19,5.39.07,12.34,1.18,17.4-.8a2,2,0,0,0,0-3.92c-5-1.66-11.6-.27-16.85.06-5.93.38-12.24.38-17.95,2.14C30.19,54.31,29.92,55.28,30.67,55.47Z"/><path d="M50.36,67.56c5.14.08,11.33,1.26,16.07-1.07a1.49,1.49,0,0,0,.09-2.55c-4.83-2.45-11-1.25-16.24-1-6.33.34-13.25.42-19.34,2.26A.77.77,0,0,0,31,66.74C37.24,67.93,44,67.45,50.36,67.56Z"/><path d="M56.86,73.67c-3.37.29-7.05.31-10.11,1.85a.66.66,0,0,0,.11,1.2c2.9,1.24,6.36,1,9.47,1.07,3.6.07,7.7.65,11.08-.76a1.76,1.76,0,0,0-.11-3.37C64,72.57,60.28,73.37,56.86,73.67Z"/><path d="M29,44.27l.59-.38a10.13,10.13,0,0,0,11.26,3c6.26-2,10.19-9,8-15.37-2-5.87-10-9.91-15-5.29a13.09,13.09,0,0,0-2.19,1.47A12.27,12.27,0,0,0,27.3,37a10.69,10.69,0,0,0,1.78,6.23l-.52.4C28.21,43.87,28.61,44.51,29,44.27Zm6,.28c3.82-2.67,7.91-5.21,11.33-8.31a9.18,9.18,0,0,1-.58,2.48.77.77,0,0,0-.22.07,45.71,45.71,0,0,0-8,5.87.67.67,0,0,0-.13.17A7.8,7.8,0,0,1,35,44.54Zm5.45-.43c1.16-.86,2.34-1.69,3.52-2.52A9.84,9.84,0,0,1,40.49,44.12Zm5.88-9.45c-4.61,2.23-8.72,6-12.6,9.39a7.18,7.18,0,0,1-2.08-1.54,87.35,87.35,0,0,0,13.84-11,8.1,8.1,0,0,1,.4,1A9,9,0,0,1,46.37,34.66ZM29.69,38.05a9.66,9.66,0,0,1,0-2.08c1.93-1.48,3.67-3.2,5.64-4.65C37,30.11,38.69,29,40.31,27.75a7.68,7.68,0,0,1,2.84,1.08C38.53,32,33.28,34.58,29.88,39.12A8.42,8.42,0,0,1,29.69,38.05Zm4-9.69a1.08,1.08,0,0,0,.57,0,14.05,14.05,0,0,1,3.34-.69,32.56,32.56,0,0,0-7.42,6.23A11.84,11.84,0,0,1,33.67,28.36Zm-3.5,11.71c3.91-4.46,9.52-6.67,14-10.39a6.54,6.54,0,0,1,.6.69C40.18,34.12,35.7,38,31,41.69A7.39,7.39,0,0,1,30.17,40.07Z"/></g></svg>
