<svg xmlns="http://www.w3.org/2000/svg" viewBox="0 0 100 125" x="0px" y="0px"><title>Process</title><g data-name="Layer 2"><path d="M58.18,42.77c-.82-5.88-6.67-11.54-12.86-10.45-1,.18-1.66,1.71-.46,2.22,3.66,1.56,7.7,3,9.19,7.09a8.06,8.06,0,0,1-3.59,9.93c-4.71,2.57-10.31.38-11-5.22a5.76,5.76,0,0,1,0-.84l.05,0a.72.72,0,0,0,.21-1.22l-.13-.1c.64-3.65,3.41-8.46,7.08-8.19.29,0,.44-.44.16-.57-4.41-2-9,4.36-10,8.2h-.29a8,8,0,0,0-1.67.21c-.45-5.26-5.51-8.5-10.7-9.4-5.9-2.8-11.37,1.57-12,7.7-.72,6.79,2.42,13.28,9.73,14.19,6.37.79,12.25-4.39,13-10.66,0-.14,0-.28,0-.41.55.12,1.14.16,1.63.22h0A10.09,10.09,0,0,0,48,56.08,11.73,11.73,0,0,0,58.18,42.77ZM23.61,52.64c-9.23.73-10.67-12.74-4.74-16.53a1.19,1.19,0,0,0,.63.42c3.41,1,8.42,2.05,10.62,5.16C33.18,46.05,28.13,52.28,23.61,52.64Z"/><path d="M75.3,33.12a1.11,1.11,0,0,0-.74,2.06,55.62,55.62,0,0,1,7.22,4.24c5.12,3.77,1.91,11.27-4,12-4,.46-10-2.81-10.16-7.13a9.85,9.85,0,0,1,1-4.09c.23-.51,4.24-5.55,4.68-4.41a.16.16,0,0,0,.23.09l.3-.15a.43.43,0,0,0,.2-.38v-.38a.62.62,0,0,0-.63-.58c-4.47-.12-7.54,4.24-8.29,8.43a17.17,17.17,0,0,0-1.71.2,18.83,18.83,0,0,0-3.88.82.92.92,0,0,0,.07,1.77,19.57,19.57,0,0,0,4.18.12c.41,0,.82,0,1.22-.08.67,5.56,7.78,9.16,12.91,9,5.49-.18,11.14-5.92,11-11.53C88.68,37.16,80.23,33.64,75.3,33.12Z"/><path d="M22.76,39.46v0a.62.62,0,0,0-1.07.59A23,23,0,0,0,22.87,43c.2.42.46.73.27,1.09s-.69.55-.87.72c-1,.9-1.53,2-.81,3.17.29.49,1,.24,1.18-.17a6.47,6.47,0,0,1,1.64-2.13,2.32,2.32,0,0,0,1-1.43,3.3,3.3,0,0,0-.69-1.85A25.89,25.89,0,0,0,22.76,39.46Z"/><path d="M49.65,43.67l-.43.33a6.44,6.44,0,0,0-2.51,2.58,1,1,0,0,0,.22,1.13l.1.11a.64.64,0,0,0,.62.14c.85-.23,1.17-1.28,1.82-1.83s1.48-.94,1.87-1.63a1.43,1.43,0,0,0-.24-1.72,18.58,18.58,0,0,0-2.56-2.71.88.88,0,0,0-.55-.45.6.6,0,0,0-.71.89,21.42,21.42,0,0,0,1.48,2.07c.15.19.88.9.9,1Q49.93,43.52,49.65,43.67Z"/><path d="M73.16,49.7c-.08.7.81.78,1.16.35.77-1,1.39-2,2.22-2.95.59-.64,1.91-1.23,2.1-2.12.16-.72-.46-1.3-.84-1.82-.73-1-1.28-2.46-2.26-3.22a.6.6,0,0,0-.87.8c.37.6.59,1.36.91,2,.23.44.89,1.23,1.18,1.82C75.13,46.09,73.47,47.15,73.16,49.7Z"/><path d="M21.82,59.65a6,6,0,0,0,.83.23c.69.13,1-.7.75-1.2a1.07,1.07,0,0,0-.66-.81,1.09,1.09,0,0,0-1.42,1A.79.79,0,0,0,21.82,59.65Z"/><path d="M29.21,62.59a.72.72,0,0,0-1.11.26s0,.06,0,.09a22.9,22.9,0,0,0-6.54-.17c-1.63.08-4.45-.28-5.61,1.07-.18.22.08.5.31.47a11.49,11.49,0,0,1,1.27-.08,34,34,0,0,0-.44,5.46c-.05,2.18-.57,4.89.64,6.78a.49.49,0,0,0,.84,0c0-.08.06-.17.1-.25a.58.58,0,0,0,.52.14l.27,0a.28.28,0,0,0,.22-.38c.67,1.24,4.63.7,6.21.88a18.5,18.5,0,0,0,3.64.44,1.22,1.22,0,0,0,1-.63c.94-2.05.78-5,.64-7.19S31,64.13,29.21,62.59ZM24.52,74.45a20.15,20.15,0,0,0-5.54.45,23.59,23.59,0,0,0-.22-4.17c-.13-2.16-.15-4.37-.49-6.51,1.77.06,3.63.37,5.3.52a30.81,30.81,0,0,0,4.42.37c.14,1,.43,1.93.55,2.93.24,1.87.62,4.8.08,6.8C27.28,74.83,25.77,74.49,24.52,74.45Z"/><path d="M77.6,61.9c-2.83.26-6,.44-8.64,1.47-.34.13-.16.72.2.61l.11,0a.26.26,0,0,0,.15-.42c1.26,1.43,5.1.59,6.86.53s3.55.22,5.33.26a24.57,24.57,0,0,0-.7,4.79,28,28,0,0,0-.21,4.83c-3.06-.19-6.46,1-9.43,1.28a16.75,16.75,0,0,1,0-2.7c0-1,0-2,0-3a19.55,19.55,0,0,0-.48-4.92.29.29,0,0,0-.56,0c-.74,2.33-.65,5-.76,7.38-.06,1.26-.78,4.06.48,5.06s4.61,0,6.16-.13c2.44-.16,5.22.22,7.43-.92a.83.83,0,0,0,0-1.43c-.15-.07-.31-.12-.46-.18.2-1.68.07-3.41.11-5.09a45.23,45.23,0,0,0,.12-5,8.48,8.48,0,0,0,.9-.14.77.77,0,0,0,.41-1.34C82.63,61.34,79.89,61.69,77.6,61.9Z"/><path d="M32.44,68.73a.93.93,0,0,0-.08,1.3,2,2,0,0,0,1.77.76,1.18,1.18,0,0,0,.46,0,.82.82,0,0,0,.64-.74A1.73,1.73,0,0,0,32.44,68.73Z"/><path d="M39.06,67.65a1.53,1.53,0,0,0,.14,2.51,1.41,1.41,0,0,0,.92.2,1.62,1.62,0,0,0,1.47-1.91A1.59,1.59,0,0,0,39.06,67.65Z"/><path d="M45.91,68.1a.59.59,0,0,0-.48.1,1.34,1.34,0,0,0,.11,2.27,1.39,1.39,0,0,0,2.06-1.33A1.24,1.24,0,0,0,45.91,68.1Z"/><path d="M52.1,67.69a2.57,2.57,0,0,0-1.53,1.9,1,1,0,0,0,.42,1,1.75,1.75,0,0,0,.38.18.91.91,0,0,0,.81.23,2.09,2.09,0,0,0,1.38-2.46A1.07,1.07,0,0,0,52.1,67.69Z"/><path d="M58.16,68.7l0-.11a1.2,1.2,0,0,0-1.68-.23,1.46,1.46,0,0,0-.55,1.8,1.21,1.21,0,0,0,1.82.54q-.49.1.09,0l.3-.16H58a1.25,1.25,0,0,0,.5-.75A1.16,1.16,0,0,0,58.16,68.7ZM57,70.61a.92.92,0,0,0,.18.09l-.14,0Zm.23.1h0Z"/><path d="M63.91,69a1.12,1.12,0,0,0-1.47-1,1.88,1.88,0,0,0-.59.34,1,1,0,0,0-.71.67.94.94,0,0,0,.33,1,1.17,1.17,0,0,0,.09.14A1.12,1.12,0,0,0,63.48,70h0a1,1,0,0,0,.35-.44A.43.43,0,0,0,63.91,69Z"/><path d="M67.86,68.58a1.83,1.83,0,0,0-1.75.17,1.09,1.09,0,0,0,.17,1.85,2.64,2.64,0,0,0,1.54.28A1.16,1.16,0,0,0,67.86,68.58Zm-.08,1.28Z"/><path d="M78,58.16a1.07,1.07,0,0,0-1.19-.87,1.38,1.38,0,0,0-.72.31.69.69,0,0,0-.4.26,2.67,2.67,0,0,0-.34.81,1,1,0,0,0,.36,1.11,1.36,1.36,0,0,0,.74.21,1.52,1.52,0,0,0,.79.09A1,1,0,0,0,78,58.68,1.33,1.33,0,0,0,78,58.16Zm-1.21.44-.16.07v-.43l.15.11Z"/></g></svg>
