<svg xmlns="http://www.w3.org/2000/svg" viewBox="0 0 100 125" x="0px" y="0px"><title>Translate</title><g data-name="Layer 2"><path d="M96.68,71.13c-2-1.72-5-2-7.38-3.05a25.62,25.62,0,0,1-7.77-5.39c7.24-8.16,10.65-16.08,8.7-27.08-.83-4.69-1.81-9.87-4.89-13.67-2.58-3.18-6.48-4.5-10.23-5.75-10.94-3.63-22.25-2-31.42,5.23a26.75,26.75,0,0,0-8.52,11.1c-2.32,5.91-1.24,11.76.23,17.74a21.52,21.52,0,0,0-16.53,6.29,18.85,18.85,0,0,0-5.16,14.15c.33,4.1,1.59,8.88,5.7,10.48.36.14.69-.43.38-.67-3.25-2.5-4.18-8.29-3.91-12.09A17.12,17.12,0,0,1,21,57.52c6.46-6.27,21.59-7.64,26.29,1.64,4.61,9.1,1.35,21.21-8.74,24.34C29.77,86.23,20,86.76,10.82,86c.4-.23.79-.46,1.17-.65,1.81-.94,4.06-1.66,5.55-3,.44-.41.21-1.32-.49-1.18-1.95.37-3.77,1.71-5.48,2.68s-3.85,1.8-4.9,3.39a.23.23,0,0,0,.2.37,6.57,6.57,0,0,0,2.57-.79.68.68,0,0,0,.49.83c6.06,1.93,12.21,1.62,18.44.72,5.38-.78,11.56-1.41,16.22-4.45a15.65,15.65,0,0,0,7-12.26c.05-.8.08-1.63.08-2.48,11.48,8.25,29.68,6.48,42.62,3.64a.48.48,0,0,0,.31-.26,5.56,5.56,0,0,0,1.68-.18C96.77,72.19,97.13,71.51,96.68,71.13ZM74,72.28c-7.81-.23-14.57-2.43-22.09-4.05a.41.41,0,0,0-.25,0c-.12-5.08-1.37-10.64-5.21-13.87A18.34,18.34,0,0,0,36,50.3v0c.31-4.43-.83-8.74,0-13.15a23,23,0,0,1,7.77-13c6.93-6,16.52-9.11,25.59-7.29,5.18,1,11.84,2.9,14.94,7.41,2,2.91,2.75,6.55,3.41,10,.93,4.83,1.55,9.68.1,14.51S83,57.83,80.31,62a.75.75,0,0,0-.06.13.78.78,0,0,0-.34,1.12,20.2,20.2,0,0,0,7.52,6.68,29.75,29.75,0,0,0,4.17,1.94C85.74,72,79.9,72.45,74,72.28Z"/><path d="M31.84,56.79v0a1.06,1.06,0,0,0-.36.42h0c-2.1,3.8-3.19,8.18-4.61,12.29-1.42.48-2.7,1.15-2.92,2.15-.07.29.25.65.56.51a8.84,8.84,0,0,1,1.57-.52c-.94,2.38-1.92,4.71-1.65,7.3.09.89,1.3,1.09,1.87.57,2.32-2.13,3.08-5.48,4-8.47.92-.09,1.81-.17,2.6-.3.59-.1,1.2-.16,1.82-.22.9,3.43,1.55,7.15,3.55,9.92.67.93,1.9.24,2.1-.66.7-3.16-.59-6.6-1.76-9.65a12.16,12.16,0,0,0,2.58-.64,1.1,1.1,0,0,0,.25-2,7.25,7.25,0,0,0-4.12-.66c-1.25-3.06-2.61-6-3.57-9.18a1.25,1.25,0,0,0-.15-.53l-.1-.33C33.47,56,32.09,55.85,31.84,56.79Zm-.67,11.56c.47-1.4.95-2.82,1.36-4.25.39,1.16.85,2.31,1.26,3.45C32.88,67.81,32,68.1,31.17,68.35Z"/><path d="M66.22,48.77a31.43,31.43,0,0,1-1.42-3.09.28.28,0,0,0-.55.12,7.56,7.56,0,0,0,1.48,3.47,4.9,4.9,0,0,0-1,1.39c0,.07,0,.18.12.17,1.45-.28,2.68-2,3.51-3.17a11.93,11.93,0,0,0,2.06-4.31c.07-.3-.35-.58-.52-.29a3.07,3.07,0,0,0-2.41-1A10.5,10.5,0,0,0,68.35,39c0-.27-.39-.39-.47-.12A16.41,16.41,0,0,0,67,42.13a.2.2,0,0,0,0,.06.37.37,0,0,0,.22.65,3.08,3.08,0,0,1,1.15.27c.4.18.74.47,1.13.66l-.38.75A5.73,5.73,0,0,0,66.45,43a8.35,8.35,0,0,0,.4-.77.49.49,0,0,0-.19-.64.3.3,0,0,0,.12-.19,23.18,23.18,0,0,0,.29-2.58s0-.06,0-.1l.22.06a.27.27,0,0,0,.37-.27c-.16-.86-1.18-.62-1.83-.54a12.06,12.06,0,0,0-2.81.53,6.38,6.38,0,0,0-.16-.7.32.32,0,0,0-.1-.46c0-.06,0-.12,0-.18a4,4,0,0,1,0-.45.23.23,0,0,0,0-.33,2.25,2.25,0,0,0-.14-.91.09.09,0,0,0-.15,0,1.53,1.53,0,0,0-.38.87,9.73,9.73,0,0,0-2.89,1.09,4.3,4.3,0,0,0-.14-.9c.22,0,.44-.09.65-.16a.39.39,0,0,0,.23-.18.28.28,0,0,0,.51-.1,11.22,11.22,0,0,0-.06-2.28,12.71,12.71,0,0,0-.22-2.16.24.24,0,0,0-.47,0l0,0a8.79,8.79,0,0,0,.11,4,.44.44,0,0,0-.21-.08l-.52,0c-.12-1.11-.25-2.21-.27-3.33,0,0,.06,0,.07-.08a3.82,3.82,0,0,0,.19-.76c1,0,1.95.09,2.92.06a.33.33,0,0,0,.23.14l.76.06A12.54,12.54,0,0,0,63,35.27l-.3.09a.09.09,0,0,0,0,.18c.13,0,.28.08.41.11a4.45,4.45,0,0,0,.28.7.24.24,0,0,0,.46-.12c0-.14,0-.28,0-.41a9.32,9.32,0,0,0,1.29.12c0,.05,0,.11,0,.16.08.26.48.13.45-.12v0a33.25,33.25,0,0,0,4.14-.43,20.85,20.85,0,0,0,6.8-1.75.42.42,0,0,0-.25-.8l-.12,0a6.11,6.11,0,0,0-.08-1.3,6.53,6.53,0,0,0-.3-1.87A.41.41,0,0,0,75,30c0,.58,0,1.15,0,1.73,0,.12,0,.24,0,.37a13.54,13.54,0,0,0-.49-1.52c-.15-.4-.72-.11-.59.28.25.78.37,1.58.58,2.37l-.37.08c0-1.08-.25-2.16-.4-3.22,0,0,0,0,0-.07.37-.14.74-.28,1.1-.44a.17.17,0,0,0-.1-.32c-3.79.59-7.5,1-11.29,1.43,0,0,0,0-.07,0h0c.07-.29.13-.58.18-.88a.28.28,0,0,0,.07-.38l.07-.39a5.41,5.41,0,0,0,.59,0c.25,0,.23-.34.05-.44a3.75,3.75,0,0,0-.53-.23c.06-.32.12-.64.19-1a.41.41,0,0,0-.44-.46,18.34,18.34,0,0,1-3.29-.23c-.44-.07-1.15-.36-1.51.07s-.28,1.76-.35,2.37a15.16,15.16,0,0,0-.2,2.55c-2-.37-4.13-.33-6.16-.58a.51.51,0,0,0-.59.53,27.82,27.82,0,0,0,0,4.67c.08.49.2.73.68.91.85.3,2.45-.22,3.35-.32s1.9-.15,2.83-.29a4.79,4.79,0,0,0,.06,1.58,3.2,3.2,0,0,0,.76,2.19.32.32,0,0,0,.48-.16,1.61,1.61,0,0,0,0-.23l0,0a1.81,1.81,0,0,0,.38.77c.16.17.53.11.48-.18a1.87,1.87,0,0,0-.36-.79c.35-.12.7-.22,1.05-.32a.23.23,0,0,0,0,.17,3.25,3.25,0,0,0,.28.88.18.18,0,0,0,.33-.06,3.13,3.13,0,0,0-.09-.92.24.24,0,0,0-.13-.18l.81-.23v0a.34.34,0,0,0,.45.06,4.28,4.28,0,0,0,.42,2.57,3.12,3.12,0,0,0-.7.43s0,.06-.05.09a.27.27,0,0,0-.25-.17,9.47,9.47,0,0,0-4.07,1.52c-.13-.9-.39-1.78-.54-2.68,0-.3-.48-.21-.46.08a8.86,8.86,0,0,0,.51,2.86l0,0-.18.07A7.08,7.08,0,0,0,57,42.84a15.82,15.82,0,0,0-.9-1.53c.28-.2.56-.4.85-.58a.09.09,0,0,0-.08-.15,10.56,10.56,0,0,0-6.25,8.93.31.31,0,0,0,0,.45,7.66,7.66,0,0,0,.24,1.68,1.88,1.88,0,0,0-.35.36.3.3,0,0,0,.24.46,1.85,1.85,0,0,0,.35-.07c1.35,3.38,6.32,4.21,9.37,2.43a4,4,0,0,0,.76,2.07.75.75,0,0,0,.86.24,15.67,15.67,0,0,0,2.38-1.05c.92-.41,1.94-.72,1.76-1.94a4.12,4.12,0,0,0-1.8-2.77.36.36,0,0,0-.54.24c-.73.38-1.42.84-2.13,1.27a.39.39,0,0,0-.21,0l-.57.29-.15-.35a13.55,13.55,0,0,0,3-1.79.33.33,0,0,0-.34-.54,13.66,13.66,0,0,0-2.9,1.85l-.31-.64a.24.24,0,0,0,.26,0A13.46,13.46,0,0,0,63.61,50c.2-.19-.06-.48-.28-.41a13.52,13.52,0,0,0-3.05,1.77.23.23,0,0,0-.11.15L59.95,51a.31.31,0,0,0,.22,0,18.94,18.94,0,0,0,3.32-2,4.71,4.71,0,0,0,.58,1.29c.18.26.71.26.69-.15a7.94,7.94,0,0,0-.46-2,13.57,13.57,0,0,0-.71-2,9,9,0,0,0,1-.78.3.3,0,0,0,0,.07c.45.41.88.83,1.32,1.25a4.33,4.33,0,0,0,1.29,1h0A11.65,11.65,0,0,1,66.22,48.77ZM57.5,32.16l.65-.12a.3.3,0,0,0,.15.21,15.05,15.05,0,0,0,.22,3.27l-.64,0A19.3,19.3,0,0,0,57.5,32.16Zm-.18,3.43-.84.1c0-1.13-.1-2.27-.2-3.4l.8-.07A18.45,18.45,0,0,0,57.32,35.59Zm6.43-.52c-.09-.47-.19-.95-.25-1.42-.09-.67-.15-1.34-.18-2,.41,0,.83,0,1.25,0h0a24.23,24.23,0,0,0,.33,3.18Q64.31,35,63.75,35.08Zm4.06-.46c-.1-1-.4-2.06-.56-3.06.43,0,.86-.09,1.29-.16,0,0,0,0,0,.05a27,27,0,0,0,.18,3.07Zm1.53-.2a29.81,29.81,0,0,0-.36-3s0,0,0-.06a26.66,26.66,0,0,0,2.85-.63A5.49,5.49,0,0,1,72,32.63c0,.4,0,.8.1,1.19l-1.24.3c0-.35-.11-.69-.15-1a11.22,11.22,0,0,1-.05-1.76c0-.3-.5-.33-.53,0a8,8,0,0,0,.15,2.94Zm4.24-.94-.75.17a15.19,15.19,0,0,0-.14-1.54,4.14,4.14,0,0,0-.4-1.58l.92-.29A29.74,29.74,0,0,0,73.57,33.48ZM66.82,31.6a12.72,12.72,0,0,0,.36,3.07l-1.71.14c-.16-1-.36-2.08-.5-3.12C65.58,31.68,66.2,31.65,66.82,31.6ZM59,31c0-.29.05-.58.08-.88l0-.21A18,18,0,0,0,61,30a12.8,12.8,0,0,0,1.81,0,5.78,5.78,0,0,0,.09.7A13.46,13.46,0,0,0,59,31Zm.2-2.06a4.83,4.83,0,0,1,.12-1.33q-.08-.35.37-.08l.56.09q.56.08,1.13.12c.55,0,1.11.05,1.66,0,0,.14-.06.27-.08.41-.37-.07-.74-.12-1.11-.17a4.32,4.32,0,0,0-2.5.12.17.17,0,0,0,0,.28,5.89,5.89,0,0,0,2.26.37c.43,0,.85.12,1.28.18,0,.09,0,.18,0,.27a12.78,12.78,0,0,0-1.78,0c-.63,0-1.27,0-1.9.09Zm-5.79,5.52a17.94,17.94,0,0,0,0-2.18l.7,0a10.88,10.88,0,0,0,0,3.77l-.68.09C53.43,35.57,53.42,35,53.41,34.42Zm-1,1.79c-.15-.11,0-1.17,0-1.34,0-.9,0-1.8,0-2.71l.34,0a11.66,11.66,0,0,0-.15,2.25,12.68,12.68,0,0,0,.07,1.81A.47.47,0,0,1,52.37,36.21ZM54.71,36a10.8,10.8,0,0,0-.3-3.66c.49,0,1,0,1.48,0A17.21,17.21,0,0,0,56,35.76ZM68.83,45h.05l-.27.5a4.61,4.61,0,0,0-1.13-.73c-.56-.29-1.13-.55-1.71-.79.12-.16.24-.31.35-.47C67,44,67.87,44.68,68.83,45ZM64.6,39.12a.28.28,0,0,0-.25-.29c.35-.08.7-.16,1.05-.21,0,.92-.16,1.84-.12,2.76a5.94,5.94,0,0,0-.64,0A18,18,0,0,0,64.6,39.12Zm2.07-.53a.23.23,0,0,0-.08.13,22.23,22.23,0,0,0-.37,2.59.26.26,0,0,0,0,.15l-.52-.06a9.61,9.61,0,0,0,0-2.81A3.78,3.78,0,0,1,66.67,38.59Zm-7.11.75c0-.09,0-.17,0-.26.81-.33,1.66-.57,2.47-.89a2.66,2.66,0,0,0,.08.32A7.21,7.21,0,0,0,59.57,39.34ZM61.94,37c0,.05,0,.11,0,.16s0,.12,0,.17a9.76,9.76,0,0,0-2.57,1.11l-.16-.59c.5-.17,1-.35,1.51-.49S61.54,37.18,61.94,37Zm1.33,2q.44-.06.9-.15a.23.23,0,0,0-.1.18,6.11,6.11,0,0,0,.09,2.42,4.29,4.29,0,0,0-.52.14C63.64,40.74,63.37,39.89,63.28,39Zm-3,9.87a.49.49,0,0,0-.22-.19c0-.25-.09-.51-.15-.76a.24.24,0,0,0,.33,0c.78-.7,1.71-1.17,2.53-1.81a.48.48,0,0,0,.15.12,5,5,0,0,0,.1.89,6.28,6.28,0,0,0-1.85,1A3.09,3.09,0,0,0,60.29,48.89ZM58,53.1a13.34,13.34,0,0,1,0-1.81s0,0,0,0l.38-.16a6,6,0,0,0,.31,3.12c-.2.06-.4.12-.6.16A11.83,11.83,0,0,0,58,53.1Zm-2.08-2.67c-1.07-.26-1.11-1.33-.83-2.2,0-.11.08-.22.13-.33a.27.27,0,0,0,.12-.29,7.13,7.13,0,0,1,.88-1.44c.09-.11.3-.37.55-.64.21,0,.45-.11.38-.37v0c.12-.12.25-.23.37-.34l.06,0c.33-.26.63-.41.82-.28h0a4.89,4.89,0,0,0,.18,1.84A9.58,9.58,0,0,0,59.32,49a5.49,5.49,0,0,1-2.12,1.29A2.7,2.7,0,0,1,55.87,50.43Zm6.54-6.31c0,.19,0,.37,0,.56a29.71,29.71,0,0,0-3,1.62l0-.13c-.06-.23-.11-.5-.15-.76A13.29,13.29,0,0,0,62.41,44.12Zm-2.56,3.53c-.07-.27-.15-.54-.23-.81,1-.47,2-.91,2.94-1.47l0,.16h0a6.63,6.63,0,0,0-2.71,2.05S59.86,47.63,59.85,47.66Zm-1.4-3.44s0,0,0-.06l0,0Zm3.95-1.58,0,0a.35.35,0,0,0,.16.21,2.91,2.91,0,0,0-.15.64,10.89,10.89,0,0,0-3.27,1.48,1.65,1.65,0,0,0-.49-.86A20.45,20.45,0,0,0,62.4,42.64Zm-6.74-1c.18.56.4,1.08.64,1.62a6.54,6.54,0,0,0,.55,1.09l-.06,0a14.38,14.38,0,0,0-1.5-2,.3.3,0,0,0-.41,0C55.12,42.07,55.38,41.85,55.66,41.63Zm-.87.77a.22.22,0,0,0,0,.23,23.17,23.17,0,0,0,1.33,2.29c-.15.14-.3.28-.44.43-.57-.5-1.21-.94-1.76-1.46-.21-.2-.56.12-.38.35a8.38,8.38,0,0,0,1.67,1.65c-.13.16-.25.33-.36.5a5.2,5.2,0,0,0-2.32-.73A10.71,10.71,0,0,1,54.79,42.4ZM52.3,46.21a7.83,7.83,0,0,1,1.35.45c.27.12.54.28.82.39l-.08.16c-.67-.09-1.37-.08-2-.12-.36,0-.45.58-.08.63.6.08,1.21.19,1.82.24a4.92,4.92,0,0,0-.19.77,3.06,3.06,0,0,0,0,.38.24.24,0,0,0-.1-.07,4.18,4.18,0,0,0-2.07.09s0-.1,0-.15A9.47,9.47,0,0,1,52.3,46.21Zm-.59,3.7c.67-.11,1.36-.15,2-.27a.26.26,0,0,0,.14-.09A2.46,2.46,0,0,0,54,50h-.05c-.65.32-1.3.62-1.93,1l-.09,0A5.85,5.85,0,0,1,51.7,49.9Zm.51,1.95.18-.1c.63-.35,1.23-.74,1.84-1.12l0,0,.13.15a16.43,16.43,0,0,0-1.69,1.92A4.65,4.65,0,0,1,52.21,51.85Zm1,1.35a14.43,14.43,0,0,0,1.67-2.07,2.56,2.56,0,0,0,1.14.4h.36a7.42,7.42,0,0,0-.72,2.86,5.29,5.29,0,0,1-1-.32l.27-.6c.23-.5.48-1,.74-1.47.15-.27-.31-.54-.47-.27a15.47,15.47,0,0,0-1.16,2A4.47,4.47,0,0,1,53.18,53.21Zm3.14,1.29c.23-1,.28-2,.59-2.9,0,0,0-.05,0-.08a4.29,4.29,0,0,0,.47-.08,6.6,6.6,0,0,0,0,3.05A5.86,5.86,0,0,1,56.32,54.5ZM61.54,54a9.81,9.81,0,0,0,2.63-1.64,6.53,6.53,0,0,1,.9,1.39.3.3,0,0,0-.25,0c-.21.09-.41.2-.62.31h0c.2-.25-.06-.65-.37-.46a21.75,21.75,0,0,1-2.45,1.5,4.62,4.62,0,0,0-.29-.71A5,5,0,0,0,61.54,54Zm1.91,1.47c-.35.16-.72.3-1.06.49a.85.85,0,0,0-.48.28l0-.08a23.44,23.44,0,0,0,3.25-1.71l0,0C65,55,64,55.21,63.46,55.46ZM59.3,54A22.29,22.29,0,0,0,59,50.77a8.71,8.71,0,0,0,1.19,2.84C59.88,53.74,59.59,53.87,59.3,54Zm.52-3.5a.33.33,0,0,0-.08.08c0-.11-.1-.23-.14-.34a5.15,5.15,0,0,0,.62-.67.24.24,0,0,0,.44-.1c0-.22.64-.49.82-.59l.78-.43c.32-.17.63-.35.93-.55l.1.39,0,.07A17.6,17.6,0,0,0,59.83,50.48Zm3.56-5.33a13.45,13.45,0,0,0-.48-2.31,9.6,9.6,0,0,1,2.81-.48A7.65,7.65,0,0,1,63.39,45.16Zm3.17.75c-.46-.39-1-.76-1.44-1.12.08-.08.18-.16.25-.25l.08.07c.47.25.94.5,1.39.79a8.12,8.12,0,0,0,1.37.81c-.18.3-.37.59-.57.87A4.24,4.24,0,0,0,66.56,45.91Z"/><path d="M72.17,39.41A3.24,3.24,0,0,0,72.7,38c0-.39-.33-.48-.66-.62a12.73,12.73,0,0,0-4.15-.93.34.34,0,0,0-.34.33,7.89,7.89,0,0,0,.2,1.78c0,.06.09.06.13,0a.2.2,0,0,0,.2.1,5.84,5.84,0,0,1,2.12.28l1.22.26-.07.12c-.22.45.52.78.71.32l0,0a8.32,8.32,0,0,1,2.75,1.8.34.34,0,0,0-.3,0,7.44,7.44,0,0,0-1.47,1.9,5.57,5.57,0,0,0-.52-.29c.42-.73.78-1.47,1.14-2.22.17-.35-.32-.68-.53-.33-.45.76-.88,1.52-1.27,2.32l-.59-.16A15,15,0,0,1,72,40.8a.27.27,0,0,0-.48-.26,6.83,6.83,0,0,0-.86,2l-.12,0c-.09,0-.15.12-.07.17l.15.09c0,.11,0,.22-.05.33,0,.34.43.33.54.07l0-.1a10.72,10.72,0,0,1,2.44,1.76.31.31,0,0,0,.38.45l.1.15-.24.12c-.34.17-.07.77.29.62l.28-.12a3.61,3.61,0,0,1,.22.86c-.41,0-.41.67,0,.75a5.46,5.46,0,0,1-.05.55.42.42,0,0,0-.12.61,3.77,3.77,0,0,1-.29.77.43.43,0,0,0-.38.61l-.1.12c-.22,0-.44.16-.39.39-1.52,1.32-4,1.6-5.85,2.32-.28.11-.27.61.08.57l.38,0a7.51,7.51,0,0,0,.74,2.86A2.3,2.3,0,0,0,70.44,58a.4.4,0,0,0,.2-.76,3,3,0,0,1-1.3-1.53,6,6,0,0,0,2,1.72c.4.22.89-.38.58-.72-1-1-2.39-1.88-2.52-3.4l.49-.1c.62,1,1.13,2.07,1.83,3,.2.27.75.12.66-.26a7.86,7.86,0,0,0-1.62-3l.53-.16a10.31,10.31,0,0,0,1.61,2.91c.26.28.62-.08.55-.37A9.71,9.71,0,0,0,72,52.56c.23-.1.45-.2.67-.31a8.79,8.79,0,0,0,1.39,2.43l-.54.54c-.35.36.17,1,.58.69,2.54-2,5.23-4.77,5-8.31S75.57,40.13,72.17,39.41Zm-.55-1.5c.28.08.31,0,.31.22a.83.83,0,0,1-.1.33,5.3,5.3,0,0,0-1.56-.93l.63.15Zm-3.56.2a3.54,3.54,0,0,0,.1-.44,6.57,6.57,0,0,1,1,.26A1.77,1.77,0,0,0,68.06,38.11Zm9.6,11.2a14.59,14.59,0,0,0-2.22-.91c0-.19,0-.37,0-.57h0a16.63,16.63,0,0,0,2.22.27A7,7,0,0,1,77.67,49.3ZM75.43,47c0-.15,0-.29-.07-.44a9.21,9.21,0,0,0,2.08-.39c.08.33.15.67.19,1,0,0,0,.07,0,.1A19.55,19.55,0,0,0,75.43,47Zm-.85-2.27A6.54,6.54,0,0,0,76,43c.13-.26-.23-.61-.46-.39a13.54,13.54,0,0,0-1.36,1.56,4.8,4.8,0,0,0-.53-.45,7.45,7.45,0,0,0,1.43-2,.24.24,0,0,0,0-.16,9.27,9.27,0,0,1,1.76,2.67,9.24,9.24,0,0,0-2,.8C74.73,44.93,74.66,44.82,74.58,44.71Zm2.44,0c.07.19.13.4.19.6a9.77,9.77,0,0,0-2,.49l0-.1A9.42,9.42,0,0,0,77,44.75Zm-8.38,9.3a3.82,3.82,0,0,0-.34-.56l.3,0A3.55,3.55,0,0,0,68.64,54.05Zm4.82-2.27.21-.17a5.21,5.21,0,0,0,1.47,2l-.42.45A10.64,10.64,0,0,0,73.46,51.78Zm2.41,1.06L75.7,53c-.23-.33-.48-.65-.73-1a9.66,9.66,0,0,1-.67-1l.2-.25c.49.45.91.95,1.4,1.39a.28.28,0,0,0,.45-.28A3.78,3.78,0,0,0,75,50.06a4.51,4.51,0,0,0,.33-.84,12.58,12.58,0,0,0,2.19.74h.05A6.91,6.91,0,0,1,75.86,52.84Z"/><path d="M61.21,31.83a8.94,8.94,0,0,0,.37,3.81c.07.17.35.15.34-.06-.06-1.26-.33-2.47-.3-3.74A.2.2,0,0,0,61.21,31.83Z"/><path d="M62,41.28c.4-.18.17-.73-.22-.69a9.48,9.48,0,0,0-3.48,1.36c-.23.13-.1.54.17.45C59.63,42,60.88,41.78,62,41.28Z"/><path d="M69.16,39.28a23.22,23.22,0,0,0-.6,2.52c0,.32.46.47.55.15a22.1,22.1,0,0,0,.54-2.56A.25.25,0,0,0,69.16,39.28Z"/><path d="M70.06,42.38a27,27,0,0,0,.88-2.69c.1-.34-.39-.55-.52-.21a25.44,25.44,0,0,0-1,2.64C69.35,42.52,69.9,42.78,70.06,42.38Z"/></g></svg>
