<svg class="fill-black dark:fill-white" xmlns="http://www.w3.org/2000/svg" viewBox="0 0 100 125" x="0px" y="0px"><title>Download</title><g data-name="Layer 2"><path d="M31.6,23.66c-.55,14.5-1.38,29.46-.44,43.95a.67.67,0,0,0,1.34.06c.93-14.53.11-29.51-.44-44.05C32.05,23.31,31.61,23.37,31.6,23.66Z"/><path d="M31.69,69.66c6.06.08,12.1.14,18.14.46,5.34.29,11.15,1,16.42-.07a.75.75,0,0,0,0-1.49c-5.23-1.08-11.07-.35-16.36-.07-6.09.32-12.17.38-18.27.46C31.18,69,31.24,69.65,31.69,69.66Z"/><path d="M19,77.73c-.08,1.46,2,1.83,2.82.89,8.76,1.66,18.44,1,27.3,1.1,9.34.13,18.75.78,28-.71a.81.81,0,0,0,.54-.31,1.21,1.21,0,0,0,1.62-.81c1.16-4.94.09-11,.5-16.13a110.21,110.21,0,0,0,.69-13c-.07-1.82,0-4.09-1.68-5.28-2.55-1.83-6.22-.3-9.08-1-.11-6.43-.4-12.85-.72-19.13.59-.05,1.18-.11,1.77-.18.89-.12.75-1.38-.07-1.5-6.45-.94-13.3-.36-19.82-.35s-13.22-.15-19.79.2c-.45,0-.5.76,0,.81,6.57.6,13.23.66,19.82.84,5.48.15,11.19.65,16.72.3-.72,15.05-1.41,30.86.4,45.81a.31.31,0,0,0,.6,0,193.74,193.74,0,0,0,1.14-25.22c2.09.62,4.79-.07,6.49,1.15,2.76,2,1,8.74.71,11.5-.61,6-2.83,14.58-.25,20.44-9.14-1.42-18.48-.78-27.72-.66-8.7.12-18.23-.55-26.84,1a144.88,144.88,0,0,0,.29-18.34c-.15-2.61-.57-5.18-.77-7.78-.22-2.81.1-5.55,2.76-7.28,1.06-.69,3.52-.65,4.74-.93a.32.32,0,0,0,0-.64c-2.13-.34-6.4-1.48-8.38-.06-1.8,1.29-1.9,4.7-2,6.6-.13,3.93.68,7.89.8,11.82C19.82,66.61,19.32,72.15,19,77.73Z"/><path d="M11.74,82.35c4.65.92,9.59.62,14.32.66s9.71.55,14.37-.35a.55.55,0,0,0,0-1.06c-4.67-.9-9.67-.38-14.41-.34s-9.64-.25-14.29.67C11.5,82,11.54,82.31,11.74,82.35Z"/><path d="M18.22,86.62a50.13,50.13,0,0,1-5.56-.11c-1.39-.14-2.15-.25-2.51-1.67a4.92,4.92,0,0,1-.12-2,.15.15,0,0,0-.09-.24l-.17,0a.27.27,0,0,0-.29.16,6.22,6.22,0,0,0-.34,3.16,1.65,1.65,0,0,0,1.1,1.4c2.23,1,5.77.86,8.11.35A.52.52,0,0,0,18.22,86.62Z"/><path d="M79.39,86.31c-20-1-40.37-.6-60.36.33-.34,0-.3.5,0,.51,19.95,1,40.34,1.31,60.29.33C80,87.45,80.07,86.34,79.39,86.31Z"/><path d="M89.39,80.86c-1.52,0-3-.07-4.54,0a.64.64,0,0,0-.56.61c-4.21-.81-8.67-.4-12.94-.33s-8.86,0-13.23.47h0a.46.46,0,0,0-.64.28c-.67,2.87-4.44,1.87-6.87,1.83l-4.5-.06c-1,0-1.91.3-2.47-.56a2.19,2.19,0,0,1-.26-1.28c0-.14-.19-.13-.26-.05-3.44,4.2,5.51,3.2,7.4,3.26,2.78.09,9.67,1.77,8-2.87,4.52.52,9.14.45,13.68.57,4.07.1,8.33.53,12.34-.27a.5.5,0,0,0,.36-.33,15,15,0,0,0,3.33.52c-.17.54-.34,1.08-.49,1.62-.36,1.26-.45,1.7-1.93,2-1.73.35-3.6.26-5.36.46-.29,0-.4.51-.06.55,1.21.16,2.43.24,3.65.29a11.17,11.17,0,0,0,3.68-.07c1.79-.63,2.18-4,2.64-5.52A.93.93,0,0,0,89.39,80.86Z"/><path d="M52.78,45.87c5.52-.25,8-6.29,5.66-11-2-4.16-9.1-6.44-12.65-3l0,.05a11.78,11.78,0,0,0-4.41,6.48C40.39,44.16,48.45,46.07,52.78,45.87ZM57.53,40A.38.38,0,0,0,57,40c-1.05.61-2.08,1.25-3.12,1.88a2.5,2.5,0,0,0,.13-.36c0-.08,0-.15,0-.23a22.42,22.42,0,0,0,3.25-2.42c.33-.3-.12-.77-.46-.51-1,.73-1.87,1.51-2.77,2.31A1.78,1.78,0,0,0,53.9,40c1.21-.74,2.43-1.49,3.61-2.28A6.3,6.3,0,0,1,57.53,40ZM46.32,43.39c.3-.22.59-.46.88-.7.08.1.16.21.25.3-.22.2-.45.39-.68.57Zm-1.53-.84L46,41.65a1,1,0,0,0,.33.73l-.76.65A7.41,7.41,0,0,1,44.79,42.56Zm-.9-.77a42.52,42.52,0,0,1,4-2.92.38.38,0,0,0,.17-.46,6.6,6.6,0,0,0,1.42.34,2.74,2.74,0,0,0,2.58-1,19.94,19.94,0,0,0,4.18-2.88c.11.15.2.3.3.46a44.86,44.86,0,0,0-4.95,3.53,8.9,8.9,0,0,0-2.07,0,5.21,5.21,0,0,0-2.15.76h0l-.22.17a27.94,27.94,0,0,0-2.95,2.3Zm-1-1.47q2.1-1.17,4.17-2.41a3.26,3.26,0,0,0,.38.24h0a29.69,29.69,0,0,0-4,3.08A4.2,4.2,0,0,1,42.91,40.32Zm4.86-4a1.57,1.57,0,0,1,.85-.69l.15,0c.59,0,1.52-.11,1.91.44.61.85-.37,1.3-1.09,1.23A4.89,4.89,0,0,1,48.44,37l-.23-.08a.41.41,0,0,0-.46-.27A.37.37,0,0,1,47.78,36.28Zm5.66-3.64a10.13,10.13,0,0,0-2.61,1.59,2.51,2.51,0,0,0-.34-.11c.78-.59,1.6-1.13,2.39-1.7Zm1.89,1.17A13.59,13.59,0,0,0,52.39,36a.13.13,0,0,0,0,.07c0-.06,0-.12,0-.19a2.28,2.28,0,0,0-.27-.6c1-.55,1.9-1.1,2.84-1.67l.07-.06Zm.52.52c-1.15.7-2.32,1.47-3.43,2.3a2.39,2.39,0,0,0,0-.46.15.15,0,0,0,.23,0,23.59,23.59,0,0,1,3-2.15Zm-4,.61a2.61,2.61,0,0,0-.36-.33c.79-.51,1.6-1,2.37-1.52a.27.27,0,0,0,.11-.23,5.78,5.78,0,0,1,.56.31C53.58,33.74,52.7,34.34,51.81,34.94ZM57.33,37a32.42,32.42,0,0,0-3.81,2.54A2.72,2.72,0,0,0,52.43,39c1.48-1,3-2,4.43-3.12A7.24,7.24,0,0,1,57.33,37ZM50,42.75a.28.28,0,0,0-.25,0,2.39,2.39,0,0,1-.64-.13,1.72,1.72,0,0,1-1.13-2,6.66,6.66,0,0,1,4-.5c1.7.78.06,2.29-1.16,2.54A4.11,4.11,0,0,1,50,42.75ZM48,43.5a3.53,3.53,0,0,0,.47.29.4.4,0,0,0,0,.29q-.44-.1-.86-.22Q47.83,43.69,48,43.5Zm1.34.54a4.84,4.84,0,0,0,1.19,0,.31.31,0,0,0,0,.32,13.37,13.37,0,0,1-1.37-.16Zm-2.54-11.7A8.43,8.43,0,0,1,49,31.91c-.74.53-1.48,1.06-2.22,1.57-.92.64-1.92,1.2-2.83,1.86l0,0A10.38,10.38,0,0,1,46.84,32.34Zm-3.49,4A22.7,22.7,0,0,0,49.82,32l.14.05a.23.23,0,0,0,.32-.19l.14,0Q46.5,34.76,42.88,38c-.16.14,0,.42.2.28,2.74-2.11,5.51-4.19,8.28-6.27.28.05.56.11.83.19a15.6,15.6,0,0,0-2.53,1.86,2,2,0,0,0-1.21.59.56.56,0,0,0-.11.17A2.32,2.32,0,0,0,46.58,36a1.3,1.3,0,0,0,0,1.32q-1.93,1.13-3.82,2.31A5.2,5.2,0,0,1,43.34,36.29Zm7.84,8.11a16.7,16.7,0,0,1,1.65-1,.27.27,0,0,0,.1-.09l.06,0a31.14,31.14,0,0,0,4.41-2.66,5.24,5.24,0,0,1-.31.82.46.46,0,0,0-.14.05,41.38,41.38,0,0,0-4.15,2.85A10.39,10.39,0,0,1,51.18,44.4Z"/><path d="M39.15,51.18l0,0c6.53,1.23,14.22.58,20.77-.36,1.53.1,1.9-2.81-.15-2.64-6.76.55-13.91.59-20.57,1.75C38.47,50.09,38.6,51,39.15,51.18Z"/><path d="M58.58,56.34c.66-.19.84-1.26.06-1.45-2.9-.7-6.08-.17-9-.06-3.41.12-6.86.11-10.25.46-.46,0-.39.72,0,.77a92.88,92.88,0,0,0,10.31.61C52.62,56.74,55.76,57.17,58.58,56.34Z"/><path d="M41.67,61c2.8,1,5.92.66,8.85.69,3.42,0,7.06.41,10.41-.32,1.1-.24,1.34-2.1.11-2.35-3.21-.64-6.59-.23-9.84,0s-6.67.06-9.59,1.35A.37.37,0,0,0,41.67,61Z"/></g></svg>
