<?xml version="1.0" encoding="utf-8"?>
<svg width="404px" height="291px" viewBox="0 0 404 291" version="1.1" xmlns:xlink="http://www.w3.org/1999/xlink" xmlns="http://www.w3.org/2000/svg">
  <defs>
    <linearGradient gradientUnits="objectBoundingBox" x1="0.11775648" y1="0.25346985" x2="1.4290155" y2="0.69870603" id="gradient_1">
      <stop offset="13.150001%" stop-color="#4361EE" />
      <stop offset="69.41%" stop-color="#480CA8" />
    </linearGradient>
    <linearGradient gradientUnits="objectBoundingBox" x1="0.11390668" y1="0.25410837" x2="1.4251657" y2="0.70046604" id="gradient_2">
      <stop offset="12.75%" stop-color="#F72585" />
      <stop offset="71.6%" stop-color="#7209B7" />
    </linearGradient>
    <path d="M451 -26L451 -26L451 265L47 265L47 -26L451 -26Z" id="path_1" />
    <path d="M186.404 112.792C186.404 48.983 233.838 0.420105 298.777 0.420105C347.904 0.420105 386.303 29.2191 400.985 70.4411C402.679 75.5233 399.291 80.6054 393.644 80.6054L352.986 80.6054C349.598 80.6054 346.775 78.9114 345.081 76.0879C336.046 59.7121 319.105 50.1124 298.212 50.1124C262.637 50.1124 238.92 76.0879 238.92 112.228C238.92 148.368 262.072 174.343 298.212 174.343C319.105 174.343 335.481 164.744 345.081 148.368C346.775 145.544 349.598 143.85 352.986 143.85L393.644 143.85C398.726 143.85 402.679 148.932 400.985 154.015C386.303 195.801 347.904 224.035 298.777 224.035C233.838 224.6 186.404 176.037 186.404 112.792L186.404 112.792Z" id="path_2" />
    <clipPath id="clip_1">
      <use xlink:href="#path_1" clip-rule="evenodd" fill-rule="evenodd" />
    </clipPath>
    <clipPath id="clip_2">
      <use xlink:href="#path_2" />
    </clipPath>
  </defs>
  <g id="Creadits_logo" clip-path="url(#clip_1)">
    <path d="M451 -26L451 -26L451 265L47 265L47 -26L451 -26Z" id="Creadits_logo" fill="none" stroke="none" />
    <g id="Shape">
      <g clip-path="url(#clip_2)">
        <use xlink:href="#path_2" fill="none" stroke="#B3179F" stroke-width="14" />
      </g>
    </g>
    <path d="M120.656 112.789C120.656 62.5336 147.76 21.3128 188.981 2.11411C188.416 -0.144564 188.981 2.67878 188.416 0.420105C125.738 2.67878 80 50.1109 80 112.789C80 175.467 125.174 222.899 188.416 225.157C188.981 222.899 188.416 225.722 188.981 223.464C147.76 203.701 120.656 162.48 120.656 112.789L120.656 112.789Z" id="Group" fill="url(#gradient_1)" stroke="none" />
    <path d="M241.619 222.899C241.054 225.158 241.619 222.335 241.054 224.592C178.376 222.899 133.202 174.902 133.202 112.789C133.202 50.6755 178.376 2.67878 241.619 0.420105C242.183 2.67878 241.619 -0.144563 242.183 2.11411C200.962 21.3128 173.858 62.5336 173.858 112.789C173.858 163.044 200.962 203.701 241.619 222.899L241.619 222.899Z" id="Group-2" fill="url(#gradient_2)" stroke="none" />
  </g>
</svg>